<?xml version="1.0" encoding="UTF-8"?>
<svg width="752pt" height="752pt" version="1.1" viewBox="0 0 752 752" xmlns="http://www.w3.org/2000/svg">
 <g>
  <rect width="752" height="752"/>
  <path d="m268.07 226.64c0 79.551 26.516 147.92 64.223 178.16-21.133 0.41406-40.191 1.2422-56.348 2.4844-44.336 3.7266-48.891 8.2852-47.648 14.5l19.059 55.105c2.8984 5.8008 8.2852 9.5312 41.02 12.43 20.715 1.6562 47.234 2.8984 75.41 3.3164v85.352c0 6.2148 5.3867 11.602 11.602 11.602h0.41406c6.2148 0 11.602-5.3867 11.602-11.602l-0.003907-85.352c28.176-0.41406 54.277-1.2422 74.578-3.3164 32.73-2.8984 39.363-7.043 41.02-12.43l19.473-55.105c1.6562-6.2148-3.3164-10.773-47.234-14.086-16.16-1.2422-35.219-2.0703-56.348-2.4844 37.703-30.246 64.223-99.023 64.223-178.16l-0.82812-22.789c0-6.2148-5.3867-9.9453-34.391-13.258-16.574-1.6562-37.703-2.8984-60.492-3.3164v-5.8008c0-6.6289-5.3867-11.602-11.602-11.602-6.6289 0-11.602 5.3867-11.602 11.602v5.8008c-22.789 0.41406-44.332 1.2422-60.906 3.3164-27.762 2.8984-33.977 6.6289-34.391 12.43zm220.84 195.15c-21.133 2.0703-56.348 4.1445-101.51 4.5586v-5.8008c3.7305-0.82812 7.043-1.6562 10.359-2.8984 40.605 0.41016 71.68 2.0703 91.152 4.1406zm-24.859 14.914-7.457 41.02c-9.1172 0.82812-19.887 1.2422-32.316 2.0703l3.3164-41.434c13.254-0.41016 25.684-0.82422 36.457-1.6562zm7.043-210.06c0 72.508-22.375 135.49-54.277 164.9 21.133-34.391 34.805-94.883 34.805-164.9v-9.9453c8.6992-0.82812 14.914-2.0703 19.473-3.3164-0.41406 4.5586 0 9.1172 0 13.262zm-68.363 163.66c14.5-40.191 20.301-110.62 20.301-163.66v-7.457c5.3867-0.41406 10.773-0.82813 15.332-1.2422v8.6992c0.41406 76.234-15.332 135.07-35.633 163.66zm-14.918-191.84c35.633 0.41406 62.148 2.8984 75.824 5.3867-13.258 2.4844-39.777 4.9727-75.824 5.3867zm0 21.957c7.8711 0 15.746-0.41406 23.203-0.41406v7.043c0 82.453-11.188 142.53-23.203 168.63zm-23.617-21.957v10.773c-36.047-0.41406-62.562-2.8984-76.238-5.3867 13.676-2.4883 40.191-4.9727 76.238-5.3867zm-15.742 191.84c-19.887-28.59-36.047-87.426-36.047-163.66v-8.6992c4.9727 0.41406 9.9453 0.82812 15.332 1.2422v7.457c-0.003906 53.031 6.2109 123.47 20.715 163.66zm-8.2891-163.66v-7.043c7.457 0.41406 15.746 0.41406 23.617 0.41406v176.5c-11.602-24.859-23.617-85.766-23.617-169.88zm-59.664 0c0-4.5586 0-8.6992 0.41406-13.258 4.5586 1.2422 10.773 2.4844 19.473 3.3164v9.9453c0 70.438 13.672 130.52 34.805 164.9-32.73-29.008-54.691-91.984-54.691-164.91zm72.512 191c3.7305 1.2422 7.457 2.4844 11.188 3.3164v5.3867c-45.578-0.41406-80.793-2.0703-101.93-4.5586 19.473-2.0703 50.547-3.7305 90.738-4.1445zm-31.906 20.719 3.3164 41.434c-11.188-0.41406-21.547-1.2422-30.246-1.6562l-5.8008-41.02c9.9414 0.41406 21.129 0.82812 32.73 1.2422zm-76.234-5.8008c7.043 1.2422 16.988 2.4844 30.66 3.7305h0.82812l5.8008 40.605c-12.43-1.2422-20.301-2.8984-23.203-4.1445zm91.566 47.648-3.3164-41.434c9.9453 0.41406 20.301 0.41406 31.074 0.41406v41.434c-9.9414 0-19.059-0.41406-27.758-0.41406zm51.375-41.02c9.5312 0 19.059 0 28.176-0.41406l-3.3164 41.434c-7.8711 0.41406-16.16 0.41406-24.859 0.41406zm104.41 33.559c-2.8984 1.2422-10.773 2.8984-23.203 4.1445l7.457-40.605c13.258-1.2422 22.789-2.0703 29.832-3.3164z" fill="#fff"/>
 </g>
</svg>
